<?xml version="1.0" encoding="utf-8"?>
<!-- Generator: Adobe Illustrator 28.3.0, SVG Export Plug-In . SVG Version: 6.00 Build 0)  -->
<svg version="1.1" id="Layer_1" xmlns="http://www.w3.org/2000/svg" xmlns:xlink="http://www.w3.org/1999/xlink" x="0px" y="0px"
	 viewBox="0 0 1920 816" style="enable-background:new 0 0 1920 816;" xml:space="preserve">
<g>
	<path d="M379.3,568.8c-12.6,6.9-25.6,7.7-39,5c-1-0.2-2.2-0.2-2.9-0.8c-7.5-6.2-14.9-2.6-22.5,0c-9.7,3.2-19.9,2.7-29.6,0.3
		c-23.3-5.7-41.4-19.4-54.4-39.5c-7.6-11.7-12.7-24.4-12.9-38.7c0-2.5-1-3.8-3.2-4.9c-20.9-10.6-33.8-27.9-41.7-49.5
		c-0.4-1.1-0.9-2.2-1.2-3.2c-3.4-9.4-3.4-9.5-13.5-9.5c-15.7,0-31.3,0.1-47-0.1c-11.6-0.1-19.5-8.3-19.4-19.6
		c0.1-8.4,7.1-15.5,15.5-15.7c18.2-0.4,36.3-0.8,54.5-1c4,0,6.1-0.9,6.4-5.3c1.3-16.3,6.9-31,16-44.5c4.1-6.1,9.1-11.4,15.4-15.5
		c1.9-1.2,2.9-2.7,3.4-5.1c4.5-25.1,17.3-44.8,39.6-57.6c19.1-11,39.6-12.6,60.8-7.3c2.7,0.7,4.1,0.2,5.8-2
		c9.9-13.4,22.6-23.3,38.4-29.1c9-3.3,18.3-2.6,27.5-2.9c8.1-0.3,15.7,1.9,23.2,4.4c1.5,0.5,2.9,1.7,4.8,1c1.4-2.2,0.8-4.8,0.8-7.2
		c0.1-26.3,0.1-52.7,0.1-79c0-4.6,0.5-9,3-13c4.3-6.9,12.9-10,21-7.7c7.9,2.3,13.2,9.1,13.2,17.4c0,28,0,56,0,84
		c0,2.1-0.5,4.3,0.7,6.5c39.3-15.4,71.2-5.1,96.5,28c43.3-13.4,83.8,10.8,99.6,45.2c2.5,5.4,4.5,11.1,4.4,17.3
		c-0.1,4.5,2.6,7.3,5.7,10c9,7.9,16.4,17.1,21,28.2c3.8,9.4,7.1,18.9,7.1,29.2c0,4,1.5,5.2,5.3,5.1c17.8-0.2,35.7-0.3,53.5-0.2
		c13.5,0.1,21.5,10,18.4,22.8c-1.7,7.1-9.3,13.4-17.3,13.5c-16.5,0.2-33,0.1-49.5,0.1c-11,0-11.1,0-13.9,10.1
		c-6.5,23.3-21.4,39.7-41.7,51.8c-2.2,1.3-3.6,2.5-3.7,5.3c-1,27-14.6,47.2-34.9,63.4c-18.2,14.5-39.5,20.1-61.8,14.7
		c-9.6-2.4-17.2-2.5-26.5,0.3c-23.5,7-41.9-4-58.4-19.6c-1.1-1-2-2.1-3.2-3.4c-1.6,2-1.1,4-1.1,5.9c-0.1,39.8,0,79.7-0.1,119.5
		c0,12-8.7,20.6-20,20c-9.9-0.5-17.2-9.3-17.2-20.9c0-30.7,0.1-61.3,0.2-92c0-8.8,0.5-17.6,0.6-26.5c0-1.9,0.6-4-1-6.4
		C395.9,556.4,389.2,564.4,379.3,568.8 M268.6,416.8c-18.7,0-37.3,0-56,0c-5.9,0-7,1.1-5.9,6.7c1.4,7.1,3.8,13.9,8.1,19.7
		c5.7,7.7,12.2,13.9,23.1,9.7c1-0.4,2.3-0.4,3.5-0.4c8.2,0.1,16.3,7.2,15.8,14.2c-0.3,4.3-0.8,8.6-1.6,12.9
		c-2.5,12.3-0.7,24,6.2,34.3c9.1,13.5,20.6,23.4,38.2,23.5c4.8,0,7-1.8,7.8-6.2c1.9-10,11-16.5,20.6-16c10.5,0.5,16.7,6.8,18.2,18.2
		c0.3,2.4,1.2,3.7,3.6,3.9c6.1,0.5,11.8-0.1,17.1-3.6c17.1-11,21.6-34.5,13-52.4c-10.6-22-30.8-32.8-52.8-40.6
		c-5.2-1.9-6.1-1-6.1,4.7c-0.1,11,0.1,22-0.7,33c-0.9,11.9-14.3,19.8-25,14.5c-8.4-4.1-10.2-11.6-10.5-20c-0.5-14,0.9-28-1.1-41.9
		C283,422.3,278.2,417.8,268.6,416.8 M572,527.8c4-3.1,7.7-6.5,10.3-10.8c8.6-14,10.7-29,6.6-45c-2.5-9.6,4-18.2,14-18.6
		c3.5-0.1,7,0,10.5,0.2c4.8,0.3,8.6-1.5,12.2-4.6c8-6.9,12-15.7,13.6-25.9c0.8-5.2,0-6.2-5.3-6.2c-18.3,0-36.6,0-55,0
		c-10.7,0-17,6.2-17.2,16.9c-0.2,12.3-0.2,24.6-0.2,37c0,3.7-0.3,7.2-1.6,10.7c-3,8.8-10.6,14.3-18.7,13.2c-9.7-1.4-16-8.7-16-18.6
		c-0.1-10.5-0.1-21,0-31.5c0-3.6-1.1-5.5-5-4.3c-19.6,5.8-37.1,15-49.2,32.1c-10.2,14.5-13.4,30.4-5,46.9
		c5.5,10.9,13.6,19,27.3,18.1c3.4-0.2,5.5-1.4,6.1-5.2c1.5-10.7,8.8-17.3,19.1-17.4c10-0.1,18.8,7,20.1,17.2
		c0.6,4.6,2.5,5.3,6.4,5.5C554.9,537.9,563.4,534,572,527.8 M570.1,337.6c-5.3,7.5-12.8,10.6-21.6,10.1c-15.3-0.8-30.6-1.1-45.9,0.1
		c-7.6,0.6-16.9,7.3-18.7,14.4c-2.2,8.3-1,18.1,7.3,24c10.8,7.7,22.7,13.1,34.9,18c3.7,1.5,5.5,1.1,7.5-2.4
		c8-14,21.2-20.8,36.5-21.6c19.3-1.1,38.6-0.4,57.9-0.7c3.2,0,7.7,1.8,9.2-1.4c1.6-3.3-1.7-6.8-3.6-9.9c-4.5-7.5-11-12.8-18.7-16.9
		c-6.2-3.3-9.8-8-9.1-15.7c0.4-4.7,0.9-9.7-0.5-14.4c-5.2-16.4-16.8-26.1-33.2-30c-6.7-1.6-13.8-2.5-20.6,0.7
		c-4.8,2.2-6.2,6.6-5.1,14.4c0.7,4.7,4.2,2.8,6.6,3.2C569.7,312.1,576.6,326,570.1,337.6 M276.8,316.8c4-4.9,9.8-6.2,15.5-7.1
		c6.2-1,6.5-1,5.5-7.4c-0.2-1.2-0.7-2.3-0.5-3.4c0.7-5.7-2.9-7.2-7.3-7.9c-11.8-1.9-22.9,0.3-32.8,7.2
		c-12.5,8.8-19.6,20.3-17.3,36.1c1.2,8.3-0.2,11.9-7.6,15.8c-7,3.7-13.4,8.1-18.1,14.6c-3.2,4.4-6.4,8.8-6.6,15.1c2,0,3.6,0,5.3,0
		c20.1,0,40.3-0.1,60.4,0c17.9,0.1,30.8,8.8,40.1,23.6c0.9,1.4,1.3,3.1,3.4,3.8c12.2-6.8,25.4-11.8,37.2-19.8
		c8-5.4,11.2-17.8,7-26.5c-4.5-9.4-12.3-13.8-22.4-14c-15.6-0.2-31.3-0.1-47-0.1c-5.6,0-10.8-0.9-14.8-5.5
		C271.6,335.2,270.1,325.2,276.8,316.8 M455.9,401.8c-8.6-6.3-15.1-14.4-19.8-24c-6.5-13.3-9.5-27.5-11-42.1
		c-0.2-2.1-0.6-4.3-0.9-6.4c-0.3-2.1-0.7-4.1-1-6.2c-0.9,24-5.6,46.9-20.1,66.4c-15.1,20.2-37.9,25.9-61.6,29.1
		c0.7,1.9,1.6,1.8,2.4,1.8c8.6-0.3,16.8,1.9,24.9,4.2c17,4.8,30.5,14.2,39.1,30.2c9,16.9,12.9,35,14.8,53.8c0.2,2.4,0.5,4.7,1.9,6.8
		c0-10.3,2-20.2,3.9-30.1c3.6-19.3,11.7-36.3,27.6-48.7c9.9-7.7,21.2-12.1,33.5-14.3c3.9-0.7,8-1.6,11.9-2.8
		c-1.2-0.8-2.3-1.1-3.5-1.4C483.4,414.7,469,411,455.9,401.8 M480.1,293.4c9.2-2.8,16.6,0,22.5,7.4c2.2,2.7,3.5,6.4,6.9,8
		c1.5-0.9,2.2-2.2,2.2-3.5c0.2-9.8,0.5-19.8-4.8-28.5c-7.6-12.7-19.4-18.2-34-17.7c-16.7,0.6-31,12-31.1,30.3
		c0,15.1,0.6,30.3,3.1,45.2c0.8,4.5,1.2,9.5,4.9,13.4c2.3-4,4.1-7.9,6.7-11.3c2.6-3.4,5.5-6.8,8.9-9.4c3.9-3,4.5-6.4,3.6-10.8
		C466.7,306,470.1,298.7,480.1,293.4 M339.6,308.4c1.5-4.2,4.3-7.5,7.3-10.6c6.7-6.8,15.3-8.1,22.7-3.7c8,4.8,10.6,12.4,7.6,21.9
		c-1.3,4.1-1.1,7.6,3.2,10.3c4.9,3,8.6,7.3,11.7,12.1c0.8,1.1,1,2.9,3.1,3c2.4-2.1,2.9-5.2,3.7-7.9c4.7-16.1,5.5-32.6,4.2-49.3
		c-0.7-8.4-4.7-14.8-11.6-19.4c-15.7-10.4-36.8-7-49.7,7.4c-9.6,10.6-8.5,23.3-7.8,35.9C334.2,311.3,337,311,339.6,308.4z"/>
	<path d="M241.2,671c-9.2-9.4-10.3-18-2.6-27.7c9.9-12.6,19.2-25.5,28.5-38.5c2.4-3.4,5.5-6.2,9.2-8.2c8.6-4.6,16.5-1,22.3,4.3
		c4.9,4.5,5.6,14.1,2.1,20.9c-4,7.8-10,14.1-15.3,20.9c-4.5,5.8-8.9,11.6-13.1,17.6c-3.2,4.7-6.7,9-12,11.8
		C253.7,675.6,247.6,675.3,241.2,671z"/>
	<path d="M610.1,162.3c2.9,6.1,1.5,11.6-1.8,16.4c-10.2,15-21.9,28.9-33.7,42.6c-2.5,2.9-5.7,5.2-9.4,6.3
		c-8.1,2.5-14.6,0.9-19.2-5.4c-4.7-6.5-6.6-13.5-1.1-21.7c4.7-7,9.9-13.8,15.2-20.3c6.6-8.1,12.5-16.8,19.5-24.6
		C588.7,145.6,605.4,148.8,610.1,162.3z"/>
	<path d="M592.5,674.8c-10.7-1.1-15.4-9.4-20.6-16.5c-7.3-9.9-14.7-19.7-22.2-29.5c-3.2-4.2-6.4-8.5-6.6-14.2
		c-0.2-9.9,3.9-15.6,14.4-19.5c5.7-2.1,15.2,1.5,19.7,7.6c9.8,13.4,19.1,27.2,29.5,40.2C617.8,656.6,609.5,673.7,592.5,674.8z"/>
	<path d="M185,544.4c-13,8.8-25.5,17.6-38.3,25.9c-8.9,5.8-17.4,4.5-24.4-2.7c-7.5-7.6-6.4-19.8,2.9-26.6
		c13.4-9.8,27.1-19.3,40.4-29.3c6.7-5,14.5-6.6,22.3-1.6c6.7,4.3,9.4,10.6,8.6,18.4C195.7,535.7,191,540.4,185,544.4z"/>
	<path d="M301.2,220.4c-9.1,10.1-18.4,10.6-28.4,1.8c-7.7-6.8-12.3-16.1-18.9-23.8c-4.5-5.3-8.7-10.9-13.4-16.1
		c-9.2-10.1-7.9-22.5,2.7-29.6c6.3-4.2,15.3-3.3,21.1,2.1c6.4,5.9,11,13.3,16.4,20c6.7,8.2,14,16,19.9,24.9
		C305.3,206.5,306.1,213.1,301.2,220.4z"/>
	<path d="M725.3,270.4c-3,4.8-7.5,7.6-11.7,10.6c-10.9,7.9-22.1,15.4-33.1,23.2c-13.2,9.4-29,1-30.1-12.6c-0.5-6.4,1.1-12.1,6.4-16
		c13.7-10,27.5-19.9,41.6-29.4c8.6-5.8,16-4.7,23.7,2.2C728.6,254.4,729.7,260.9,725.3,270.4z"/>
	<path d="M726.5,550.8c1.8,7.4-0.2,13.4-5.5,17.9c-5.3,4.4-11.3,7.1-18.3,3.4c-2.5-1.3-5.2-2.3-7.4-4c-11.9-9.1-24.7-16.8-36.9-25.6
		c-9.2-6.7-11.8-15-7.5-23.7c4.6-9.3,14.8-15.8,27-7.6c13.2,8.9,25.9,18.6,39.3,27.3C721.4,541.3,724.9,545.2,726.5,550.8z"/>
	<path d="M179.6,269.4c3.4,2.5,6.7,4.5,9.5,7c7,6.3,8.2,16.1,3.1,23.5c-5.3,7.5-15.6,10.6-23.4,5.9c-9.1-5.5-17.5-12.1-26.3-18.1
		c-5.5-3.8-11.2-7.3-16.7-11c-8.3-5.7-11-13.9-7.8-22.9c3-8.6,14.7-13.7,23.1-10c4.3,1.9,8.2,4.5,11.9,7.4
		C161.4,257.7,170.3,263.5,179.6,269.4z"/>
</g>
<g>
	<path d="M850.7,352.1c0.9-14,8.9-21.7,22.1-21.7c19-0.1,38,0.5,57-0.2c19.8-0.7,40.4,20.4,37.9,44.1c-1.1,10.2-1.6,20-9.4,27.7
		c-2.2,2.2-0.9,4.2,1,6c16.5,16.4,16.4,35.5,7.2,54.9c-6.2,13.1-18.1,20.5-32.7,21c-19.4,0.7-38.9,0.4-58.4,0
		c-15.3-0.3-24.6-10.3-24.6-25.8C850.6,423.1,850.7,387.9,850.7,352.1 M923.9,424c-10,0-20.1,0-30.1-0.2c-5.3-0.1-7.7,2.2-7.5,7.6
		c0.2,5.1,0.1,10.3,0.2,15.4c0,3.2,1.2,5.7,4.7,5.7c12.6-0.1,25.2,1.3,37.7-1.3c4.6-1,7.2-3.5,8.3-8.3
		C939.1,433.7,935.9,428.6,923.9,424 M917.5,363.5c-8.2-0.1-16.4,0.1-24.6-0.2c-4.9-0.2-6.7,1.9-6.5,6.6c0.2,5.6,0.2,11.2,0.1,16.8
		c-0.1,4.8,2,6.9,6.7,6.8c8.2-0.1,16.4,0,24.6,0c11-0.1,15.9-4.6,16.1-14.7C934,367.7,930.5,364.1,917.5,363.5z"/>
	<path d="M1558.2,469.2c-12.5,12.7-27.7,17-44.5,16.6c-6.1-0.2-11.1-3.6-16.5-5.7c-6.1-2.3-8.1-0.9-8.2,5.7
		c-0.2,10.9,2.8,21.9-0.8,32.8c-2.3,7-6.2,11.5-13.6,12.2c-7.5,0.7-13.9-3-16.9-9.9c-2-4.5-2.9-9.3-2.9-14.4
		c0-38.9-0.1-77.9-0.3-116.8c0-7.5,2.8-13.3,9.3-16.8c6.9-3.7,13.9-2.2,19.6,2.5c3.4,2.8,5.6,2.5,9.2,0.6
		c30.9-16.3,69.5-1.9,80.1,34.7C1579.1,432.4,1575,452.3,1558.2,469.2 M1505.9,450.8c11.2,4.5,21.5,2.3,30.1-6.4
		c7.6-7.7,8.8-14.8,4.2-25.6c-4.9-11.6-15.8-18.1-29-15.7c-10.7,1.9-19.6,6-21.8,22.9C1488.1,436.3,1491.6,445.1,1505.9,450.8z"/>
	<path d="M1417.2,479.1c-28.8,12.2-55.2,7.2-79.3-10.4c-9.2-6.7-10.4-13.9-6.2-20.4c5.6-8.8,13.6-11.6,23.5-6.8
		c8.2,4,16.2,8.3,25.5,9.7c5.9,0.9,11.7,1,17.5-0.3c4.6-1,9.4-2.2,10-8.2c0.6-5.9-3.4-8.5-8-10.1c-11.2-4-22.5-7.6-33.8-11.5
		c-12.9-4.4-24.9-10.4-31.2-23.4c-12.6-26.2-1.6-51.4,24.6-63.9c24.7-11.7,48.4-6.7,70,8.9c7.9,5.7,9.2,12.9,4.8,20.1
		c-4.8,8-14.2,11.2-22.4,7.9c-9.3-3.8-18.6-7.7-29-7.3c-3.9,0.1-7.4,1.1-10.6,3.2c-4.1,2.7-7.1,6.4-7.1,11.4c0,5.1,4.3,6.8,8.2,8.6
		c13.2,6,27.5,9,41,13.9c15.4,5.6,26.8,14.9,28.9,31.9c2.4,19.7-4.7,35.3-22.8,44.9C1419.8,477.7,1418.7,478.3,1417.2,479.1z"/>
	<path d="M1869.7,456.3c1.6,2.1,2.9,3.7,4.1,5.5c3.2,5.1,6.1,10.1,1.5,16c-4.6,6-12.1,8.7-19.2,6.9c-7.5-2-12.3-7.5-17.1-12.9
		c-4.8-5.4-9.3-11.1-14.2-16.5c-1.8-2-2.7-6.6-6.7-4.6c-4,2-9,3.4-10,8.9c-0.7,3.7-1.4,7.4-2.1,11c-1.9,10.2-7.9,15.5-16.9,15
		c-9.4-0.6-16.3-7.7-16.5-17.7c-0.2-17.1,0-34.2,0-51.3c0-23.7-0.1-47.3,0-71c0.1-12,8.2-19.1,20.1-18c7.7,0.7,12.9,6.1,12.9,13.9
		c0.1,19,0,37.9,0.1,56.9c0,3.8-0.6,7.9,1.3,10.4c6-5.2,11.8-10.1,17.4-15.2c6.6-5.9,13.1-12,19.7-18c3.8-3.4,8.6-4.8,13.4-5.5
		c6.5-1,11.8,1.4,15.6,7.1c4,6.2,2.6,11.4-1.9,16.5c-7.5,8.4-16.2,15.6-24.4,23.3c-6.9,6.5-6.7,6.4-0.5,13.2
		C1854.2,438.7,1861.7,447.3,1869.7,456.3z"/>
	<path d="M1588.8,419.5c11.4-9.4,24.5-9.6,37.7-9c6.5,0.3,12.8,1.8,20.2,2.9c-1.3-7.5-6.1-9.7-11.8-10.6c-8.9-1.4-17.7-0.8-26.5,0.6
		c-8.3,1.4-16-3.3-19.2-11.8c-1.9-5.1,1-11.3,8.2-15.3c7.2-4,14.7-6.9,23.3-6.8c12.8,0.2,25.6-0.8,37.7,5.5
		c13.2,6.9,21.1,17.5,21.7,32.1c0.8,20.8,0.5,41.7,0.2,62.6c-0.2,12.7-14.1,19.9-25,12.7c-6.2-4.1-10.8-3.6-17.3-0.6
		c-15.3,7.1-30.5,4.5-44-4.8c-13.1-9.1-19.4-22.1-16.9-38.3C1578.4,431.2,1582.8,425,1588.8,419.5 M1644.9,444.6
		c0.8-4.3-1.5-6.5-5.1-7.9c-8.3-3.2-16.6-1.8-24.6,0.8c-3,0.9-5,3.2-5.1,6.8c0,3.9,2.1,6.2,5.5,7.2c7.8,2.3,15.6,2.4,23.3-0.3
		C1641.6,450.2,1643.8,448.5,1644.9,444.6z"/>
	<path d="M1055.8,422.8c11.3-11.7,25.3-13.1,39.9-12.4c5.1,0.2,10.2,1.4,15.2,2.3c1.6,0.3,3.4,0.8,4.2-1.2c0.8-1.9,0.4-3.9-1.2-5.1
		c-1.7-1.2-3.6-2.6-5.6-2.8c-9.8-1.2-19.7-2-29.3,0.3c-7.8,1.8-16.1-1.8-19.3-9.5c-2.8-6.8,0.2-14.7,6.9-18.7
		c4.5-2.7,9.7-4.5,14.5-4.9c14.6-1.3,29.2-2.5,43.5,3.4c14.8,6.1,21.7,17.4,23.5,32.2c2.7,21.7,1.6,43.5,0.9,65.3
		c-0.4,12-13.7,17.8-25,11c-5.8-3.5-10.2-3.3-16.1-0.6c-21.9,10.2-49,1.1-58-19.9C1044.3,448.4,1045.4,434.9,1055.8,422.8
		 M1079.4,443c-0.5,3.4,0.7,5.8,3.7,7.6c6.1,3.7,23.6,2.8,29.1-1.6c3.2-2.6,4.5-5.5,1.3-8.9C1106.4,432.6,1086.4,433.7,1079.4,443z"
		/>
	<path d="M1318,407.7c0.3,21.4,0.7,42.3,0.5,63.2c-0.1,8.5-7.4,14.5-16,14.4c-9.2-0.1-16.6-6.7-17-15.2c-0.9-17.5-1.8-35.1-2.7-52.6
		c-0.4-7-4.5-11-11.3-11.9c-20.5-2.9-29.4,8.8-28.7,26.3c0.4,12.4,0.1,24.9,0,37.3c-0.1,9.6-7,16.5-16.3,16.6
		c-9.2,0-16.4-6.9-16.9-16.1c-1.3-26.2-1.1-52.5-1.2-78.8c0-7.2,1.3-14.6,8.4-17.2c7.6-2.7,16.3-3.7,23,3.2c2.4,2.5,4.1,2.2,6.6,0.4
		c22.2-15.8,57.4-6.7,67.8,18.6C1315.7,399.6,1315.3,403.9,1318,407.7z"/>
	<path d="M1703.7,370.8c9-1.9,14.9,1.9,19.7,9.2c3.7-2.2,7.4-4.5,11.3-6.6c8.8-4.6,17.8-6,26.7-0.4c6.6,4.2,8.8,10.5,8.4,18.1
		c-0.3,7.2-4.6,10.9-10.9,13c-1.3,0.4-3,1.1-4,0.6c-7.6-3.5-13.8-0.6-19.4,4.1c-6.8,5.7-9.9,13.7-10.2,22.4
		c-0.4,11.7-0.1,23.4-0.2,35.2c-0.1,11.4-6.6,19.1-16.1,19.3c-8.8,0.2-15.8-7.3-16.7-18.1c-2.4-27.4-0.6-54.8-1.3-82.2
		C1690.9,377.3,1696.1,373.2,1703.7,370.8z"/>
	<path d="M993.2,484.6c-9.2-3.7-12.8-10.6-12.8-19.6c0-25.1,0-50.2-0.1-75.3c0-7,1.6-13.3,8.3-16.5c6.6-3.3,17-0.5,22.2,5.2
		c0.5,0.5,1.1,0.8,2.1,1.6c7.4-6.8,15.8-11.3,26.4-10.3c7.5,0.7,14.6,5.5,16,11.5c2.1,8.8-1.8,19.2-8.5,22.8c-1.5,0.8-3,1.1-4.7,1
		c-18.3-0.9-27.8,9.2-26.8,27.8c0.7,12.6,1.6,25.3-0.5,37.9C1012.8,481.7,1004.8,486.9,993.2,484.6z"/>
	<path d="M1161.7,450c0.1-17.3,0.2-33.9,0.4-50.6c0-3.7,0.2-7.5,0.8-11.2c1.5-10.9,7.8-16.2,18.4-15.7c8.4,0.4,14.5,7.2,14.8,17.3
		c0.3,11.9,0.1,23.9,0.1,35.8c0,13.6,0.1,27.2,0,40.8c-0.1,11.7-7.2,19.4-17.7,19.3c-9.8-0.1-17.3-7.9-17.6-19
		C1160.7,461.4,1161.4,456,1161.7,450z"/>
	<path d="M1184.2,361.7c-10.6,3-19.9-1-23.3-9.5c-3.9-10,0.3-20.9,10-25.5c8-3.8,19.1-0.1,23.5,8.6
		C1198.7,343.9,1197.6,354.8,1184.2,361.7z"/>
</g>
</svg>
