<?xml version="1.0" encoding="UTF-8"?>
<svg id="Layer_1" data-name="Layer 1" xmlns="http://www.w3.org/2000/svg" viewBox="0 0 1920 816">
  <defs>
    <style>
      .cls-1 {
        fill: #000;
        stroke-width: 0px;
      }
    </style>
  </defs>
  <g>
    <path class="cls-1" d="M379.3,568.8c-12.6,6.9-25.6,7.7-39,5-1-.2-2.2-.2-2.9-.8-7.5-6.2-14.9-2.6-22.5,0-9.7,3.2-19.9,2.7-29.6.3-23.3-5.7-41.4-19.4-54.4-39.5-7.6-11.7-12.7-24.4-12.9-38.7,0-2.5-1-3.8-3.2-4.9-20.9-10.6-33.8-27.9-41.7-49.5-.4-1.1-.9-2.2-1.2-3.2-3.4-9.4-3.4-9.5-13.5-9.5-15.7,0-31.3.1-47-.1-11.6-.1-19.5-8.3-19.4-19.6.1-8.4,7.1-15.5,15.5-15.7,18.2-.4,36.3-.8,54.5-1,4,0,6.1-.9,6.4-5.3,1.3-16.3,6.9-31,16-44.5,4.1-6.1,9.1-11.4,15.4-15.5,1.9-1.2,2.9-2.7,3.4-5.1,4.5-25.1,17.3-44.8,39.6-57.6,19.1-11,39.6-12.6,60.8-7.3,2.7.7,4.1.2,5.8-2,9.9-13.4,22.6-23.3,38.4-29.1,9-3.3,18.3-2.6,27.5-2.9,8.1-.3,15.7,1.9,23.2,4.4,1.5.5,2.9,1.7,4.8,1,1.4-2.2.8-4.8.8-7.2.1-26.3.1-52.7.1-79,0-4.6.5-9,3-13,4.3-6.9,12.9-10,21-7.7,7.9,2.3,13.2,9.1,13.2,17.4v84c0,2.1-.5,4.3.7,6.5,39.3-15.4,71.2-5.1,96.5,28,43.3-13.4,83.8,10.8,99.6,45.2,2.5,5.4,4.5,11.1,4.4,17.3-.1,4.5,2.6,7.3,5.7,10,9,7.9,16.4,17.1,21,28.2,3.8,9.4,7.1,18.9,7.1,29.2,0,4,1.5,5.2,5.3,5.1,17.8-.2,35.7-.3,53.5-.2,13.5.1,21.5,10,18.4,22.8-1.7,7.1-9.3,13.4-17.3,13.5-16.5.2-33,.1-49.5.1-11,0-11.1,0-13.9,10.1-6.5,23.3-21.4,39.7-41.7,51.8-2.2,1.3-3.6,2.5-3.7,5.3-1,27-14.6,47.2-34.9,63.4-18.2,14.5-39.5,20.1-61.8,14.7-9.6-2.4-17.2-2.5-26.5.3-23.5,7-41.9-4-58.4-19.6-1.1-1-2-2.1-3.2-3.4-1.6,2-1.1,4-1.1,5.9-.1,39.8,0,79.7-.1,119.5,0,12-8.7,20.6-20,20-9.9-.5-17.2-9.3-17.2-20.9,0-30.7.1-61.3.2-92,0-8.8.5-17.6.6-26.5,0-1.9.6-4-1-6.4-8.2,6.3-14.9,14.3-24.8,18.7M268.6,416.8h-56c-5.9,0-7,1.1-5.9,6.7,1.4,7.1,3.8,13.9,8.1,19.7,5.7,7.7,12.2,13.9,23.1,9.7,1-.4,2.3-.4,3.5-.4,8.2.1,16.3,7.2,15.8,14.2-.3,4.3-.8,8.6-1.6,12.9-2.5,12.3-.7,24,6.2,34.3,9.1,13.5,20.6,23.4,38.2,23.5,4.8,0,7-1.8,7.8-6.2,1.9-10,11-16.5,20.6-16,10.5.5,16.7,6.8,18.2,18.2.3,2.4,1.2,3.7,3.6,3.9,6.1.5,11.8-.1,17.1-3.6,17.1-11,21.6-34.5,13-52.4-10.6-22-30.8-32.8-52.8-40.6-5.2-1.9-6.1-1-6.1,4.7-.1,11,.1,22-.7,33-.9,11.9-14.3,19.8-25,14.5-8.4-4.1-10.2-11.6-10.5-20-.5-14,.9-28-1.1-41.9-1.1-8.7-5.9-13.2-15.5-14.2M572,527.8c4-3.1,7.7-6.5,10.3-10.8,8.6-14,10.7-29,6.6-45-2.5-9.6,4-18.2,14-18.6,3.5-.1,7,0,10.5.2,4.8.3,8.6-1.5,12.2-4.6,8-6.9,12-15.7,13.6-25.9.8-5.2,0-6.2-5.3-6.2h-55c-10.7,0-17,6.2-17.2,16.9-.2,12.3-.2,24.6-.2,37,0,3.7-.3,7.2-1.6,10.7-3,8.8-10.6,14.3-18.7,13.2-9.7-1.4-16-8.7-16-18.6-.1-10.5-.1-21,0-31.5,0-3.6-1.1-5.5-5-4.3-19.6,5.8-37.1,15-49.2,32.1-10.2,14.5-13.4,30.4-5,46.9,5.5,10.9,13.6,19,27.3,18.1,3.4-.2,5.5-1.4,6.1-5.2,1.5-10.7,8.8-17.3,19.1-17.4,10-.1,18.8,7,20.1,17.2.6,4.6,2.5,5.3,6.4,5.5,9.9.4,18.4-3.5,27-9.7M570.1,337.6c-5.3,7.5-12.8,10.6-21.6,10.1-15.3-.8-30.6-1.1-45.9.1-7.6.6-16.9,7.3-18.7,14.4-2.2,8.3-1,18.1,7.3,24,10.8,7.7,22.7,13.1,34.9,18,3.7,1.5,5.5,1.1,7.5-2.4,8-14,21.2-20.8,36.5-21.6,19.3-1.1,38.6-.4,57.9-.7,3.2,0,7.7,1.8,9.2-1.4,1.6-3.3-1.7-6.8-3.6-9.9-4.5-7.5-11-12.8-18.7-16.9-6.2-3.3-9.8-8-9.1-15.7.4-4.7.9-9.7-.5-14.4-5.2-16.4-16.8-26.1-33.2-30-6.7-1.6-13.8-2.5-20.6.7-4.8,2.2-6.2,6.6-5.1,14.4.7,4.7,4.2,2.8,6.6,3.2,16.7,2.6,23.6,16.5,17.1,28.1M276.8,316.8c4-4.9,9.8-6.2,15.5-7.1,6.2-1,6.5-1,5.5-7.4-.2-1.2-.7-2.3-.5-3.4.7-5.7-2.9-7.2-7.3-7.9-11.8-1.9-22.9.3-32.8,7.2-12.5,8.8-19.6,20.3-17.3,36.1,1.2,8.3-.2,11.9-7.6,15.8-7,3.7-13.4,8.1-18.1,14.6-3.2,4.4-6.4,8.8-6.6,15.1h5.3c20.1,0,40.3-.1,60.4,0,17.9.1,30.8,8.8,40.1,23.6.9,1.4,1.3,3.1,3.4,3.8,12.2-6.8,25.4-11.8,37.2-19.8,8-5.4,11.2-17.8,7-26.5-4.5-9.4-12.3-13.8-22.4-14-15.6-.2-31.3-.1-47-.1-5.6,0-10.8-.9-14.8-5.5-5.2-6.1-6.7-16.1,0-24.5M455.9,401.8c-8.6-6.3-15.1-14.4-19.8-24-6.5-13.3-9.5-27.5-11-42.1-.2-2.1-.6-4.3-.9-6.4s-.7-4.1-1-6.2c-.9,24-5.6,46.9-20.1,66.4-15.1,20.2-37.9,25.9-61.6,29.1.7,1.9,1.6,1.8,2.4,1.8,8.6-.3,16.8,1.9,24.9,4.2,17,4.8,30.5,14.2,39.1,30.2,9,16.9,12.9,35,14.8,53.8.2,2.4.5,4.7,1.9,6.8,0-10.3,2-20.2,3.9-30.1,3.6-19.3,11.7-36.3,27.6-48.7,9.9-7.7,21.2-12.1,33.5-14.3,3.9-.7,8-1.6,11.9-2.8-1.2-.8-2.3-1.1-3.5-1.4-14.6-3.4-29-7.1-42.1-16.3M480.1,293.4c9.2-2.8,16.6,0,22.5,7.4,2.2,2.7,3.5,6.4,6.9,8,1.5-.9,2.2-2.2,2.2-3.5.2-9.8.5-19.8-4.8-28.5-7.6-12.7-19.4-18.2-34-17.7-16.7.6-31,12-31.1,30.3,0,15.1.6,30.3,3.1,45.2.8,4.5,1.2,9.5,4.9,13.4,2.3-4,4.1-7.9,6.7-11.3s5.5-6.8,8.9-9.4c3.9-3,4.5-6.4,3.6-10.8-2.3-10.5,1.1-17.8,11.1-23.1M339.6,308.4c1.5-4.2,4.3-7.5,7.3-10.6,6.7-6.8,15.3-8.1,22.7-3.7,8,4.8,10.6,12.4,7.6,21.9-1.3,4.1-1.1,7.6,3.2,10.3,4.9,3,8.6,7.3,11.7,12.1.8,1.1,1,2.9,3.1,3,2.4-2.1,2.9-5.2,3.7-7.9,4.7-16.1,5.5-32.6,4.2-49.3-.7-8.4-4.7-14.8-11.6-19.4-15.7-10.4-36.8-7-49.7,7.4-9.6,10.6-8.5,23.3-7.8,35.9.2,3.2,3,2.9,5.6.3Z"/>
    <path class="cls-1" d="M241.2,671c-9.2-9.4-10.3-18-2.6-27.7,9.9-12.6,19.2-25.5,28.5-38.5,2.4-3.4,5.5-6.2,9.2-8.2,8.6-4.6,16.5-1,22.3,4.3,4.9,4.5,5.6,14.1,2.1,20.9-4,7.8-10,14.1-15.3,20.9-4.5,5.8-8.9,11.6-13.1,17.6-3.2,4.7-6.7,9-12,11.8-6.6,3.5-12.7,3.2-19.1-1.1Z"/>
    <path class="cls-1" d="M610.1,162.3c2.9,6.1,1.5,11.6-1.8,16.4-10.2,15-21.9,28.9-33.7,42.6-2.5,2.9-5.7,5.2-9.4,6.3-8.1,2.5-14.6.9-19.2-5.4-4.7-6.5-6.6-13.5-1.1-21.7,4.7-7,9.9-13.8,15.2-20.3,6.6-8.1,12.5-16.8,19.5-24.6,9.1-10,25.8-6.8,30.5,6.7Z"/>
    <path class="cls-1" d="M592.5,674.8c-10.7-1.1-15.4-9.4-20.6-16.5-7.3-9.9-14.7-19.7-22.2-29.5-3.2-4.2-6.4-8.5-6.6-14.2-.2-9.9,3.9-15.6,14.4-19.5,5.7-2.1,15.2,1.5,19.7,7.6,9.8,13.4,19.1,27.2,29.5,40.2,11.1,13.7,2.8,30.8-14.2,31.9Z"/>
    <path class="cls-1" d="M185,544.4c-13,8.8-25.5,17.6-38.3,25.9-8.9,5.8-17.4,4.5-24.4-2.7-7.5-7.6-6.4-19.8,2.9-26.6,13.4-9.8,27.1-19.3,40.4-29.3,6.7-5,14.5-6.6,22.3-1.6,6.7,4.3,9.4,10.6,8.6,18.4-.8,7.2-5.5,11.9-11.5,15.9Z"/>
    <path class="cls-1" d="M301.2,220.4c-9.1,10.1-18.4,10.6-28.4,1.8-7.7-6.8-12.3-16.1-18.9-23.8-4.5-5.3-8.7-10.9-13.4-16.1-9.2-10.1-7.9-22.5,2.7-29.6,6.3-4.2,15.3-3.3,21.1,2.1,6.4,5.9,11,13.3,16.4,20,6.7,8.2,14,16,19.9,24.9,4.7,6.8,5.5,13.4.6,20.7Z"/>
    <path class="cls-1" d="M725.3,270.4c-3,4.8-7.5,7.6-11.7,10.6-10.9,7.9-22.1,15.4-33.1,23.2-13.2,9.4-29,1-30.1-12.6-.5-6.4,1.1-12.1,6.4-16,13.7-10,27.5-19.9,41.6-29.4,8.6-5.8,16-4.7,23.7,2.2,6.5,6,7.6,12.5,3.2,22Z"/>
    <path class="cls-1" d="M726.5,550.8c1.8,7.4-.2,13.4-5.5,17.9-5.3,4.4-11.3,7.1-18.3,3.4-2.5-1.3-5.2-2.3-7.4-4-11.9-9.1-24.7-16.8-36.9-25.6-9.2-6.7-11.8-15-7.5-23.7,4.6-9.3,14.8-15.8,27-7.6,13.2,8.9,25.9,18.6,39.3,27.3,4.2,2.8,7.7,6.7,9.3,12.3Z"/>
    <path class="cls-1" d="M179.6,269.4c3.4,2.5,6.7,4.5,9.5,7,7,6.3,8.2,16.1,3.1,23.5-5.3,7.5-15.6,10.6-23.4,5.9-9.1-5.5-17.5-12.1-26.3-18.1-5.5-3.8-11.2-7.3-16.7-11-8.3-5.7-11-13.9-7.8-22.9,3-8.6,14.7-13.7,23.1-10,4.3,1.9,8.2,4.5,11.9,7.4,8.4,6.5,17.3,12.3,26.6,18.2Z"/>
  </g>
  <g>
    <path class="cls-1" d="M850.7,352.1c.9-14,8.9-21.7,22.1-21.7,19-.1,38,.5,57-.2,19.8-.7,40.4,20.4,37.9,44.1-1.1,10.2-1.6,20-9.4,27.7-2.2,2.2-.9,4.2,1,6,16.5,16.4,16.4,35.5,7.2,54.9-6.2,13.1-18.1,20.5-32.7,21-19.4.7-38.9.4-58.4,0-15.3-.3-24.6-10.3-24.6-25.8-.2-35-.1-70.2-.1-106M923.9,424c-10,0-20.1,0-30.1-.2-5.3-.1-7.7,2.2-7.5,7.6.2,5.1.1,10.3.2,15.4,0,3.2,1.2,5.7,4.7,5.7,12.6-.1,25.2,1.3,37.7-1.3,4.6-1,7.2-3.5,8.3-8.3,1.9-9.2-1.3-14.3-13.3-18.9M917.5,363.5c-8.2-.1-16.4.1-24.6-.2-4.9-.2-6.7,1.9-6.5,6.6.2,5.6.2,11.2.1,16.8-.1,4.8,2,6.9,6.7,6.8,8.2-.1,16.4,0,24.6,0,11-.1,15.9-4.6,16.1-14.7.1-11.1-3.4-14.7-16.4-15.3Z"/>
    <path class="cls-1" d="M1558.2,469.2c-12.5,12.7-27.7,17-44.5,16.6-6.1-.2-11.1-3.6-16.5-5.7-6.1-2.3-8.1-.9-8.2,5.7-.2,10.9,2.8,21.9-.8,32.8-2.3,7-6.2,11.5-13.6,12.2-7.5.7-13.9-3-16.9-9.9-2-4.5-2.9-9.3-2.9-14.4,0-38.9-.1-77.9-.3-116.8,0-7.5,2.8-13.3,9.3-16.8,6.9-3.7,13.9-2.2,19.6,2.5,3.4,2.8,5.6,2.5,9.2.6,30.9-16.3,69.5-1.9,80.1,34.7,6.4,21.7,2.3,41.6-14.5,58.5M1505.9,450.8c11.2,4.5,21.5,2.3,30.1-6.4,7.6-7.7,8.8-14.8,4.2-25.6-4.9-11.6-15.8-18.1-29-15.7-10.7,1.9-19.6,6-21.8,22.9-1.3,10.3,2.2,19.1,16.5,24.8Z"/>
    <path class="cls-1" d="M1417.2,479.1c-28.8,12.2-55.2,7.2-79.3-10.4-9.2-6.7-10.4-13.9-6.2-20.4,5.6-8.8,13.6-11.6,23.5-6.8,8.2,4,16.2,8.3,25.5,9.7,5.9.9,11.7,1,17.5-.3,4.6-1,9.4-2.2,10-8.2.6-5.9-3.4-8.5-8-10.1-11.2-4-22.5-7.6-33.8-11.5-12.9-4.4-24.9-10.4-31.2-23.4-12.6-26.2-1.6-51.4,24.6-63.9,24.7-11.7,48.4-6.7,70,8.9,7.9,5.7,9.2,12.9,4.8,20.1-4.8,8-14.2,11.2-22.4,7.9-9.3-3.8-18.6-7.7-29-7.3-3.9.1-7.4,1.1-10.6,3.2-4.1,2.7-7.1,6.4-7.1,11.4s4.3,6.8,8.2,8.6c13.2,6,27.5,9,41,13.9,15.4,5.6,26.8,14.9,28.9,31.9,2.4,19.7-4.7,35.3-22.8,44.9-1,.4-2.1,1-3.6,1.8Z"/>
    <path class="cls-1" d="M1869.7,456.3c1.6,2.1,2.9,3.7,4.1,5.5,3.2,5.1,6.1,10.1,1.5,16-4.6,6-12.1,8.7-19.2,6.9-7.5-2-12.3-7.5-17.1-12.9-4.8-5.4-9.3-11.1-14.2-16.5-1.8-2-2.7-6.6-6.7-4.6s-9,3.4-10,8.9c-.7,3.7-1.4,7.4-2.1,11-1.9,10.2-7.9,15.5-16.9,15-9.4-.6-16.3-7.7-16.5-17.7-.2-17.1,0-34.2,0-51.3,0-23.7-.1-47.3,0-71,.1-12,8.2-19.1,20.1-18,7.7.7,12.9,6.1,12.9,13.9.1,19,0,37.9.1,56.9,0,3.8-.6,7.9,1.3,10.4,6-5.2,11.8-10.1,17.4-15.2,6.6-5.9,13.1-12,19.7-18,3.8-3.4,8.6-4.8,13.4-5.5,6.5-1,11.8,1.4,15.6,7.1,4,6.2,2.6,11.4-1.9,16.5-7.5,8.4-16.2,15.6-24.4,23.3-6.9,6.5-6.7,6.4-.5,13.2,7.9,8.5,15.4,17.1,23.4,26.1Z"/>
    <path class="cls-1" d="M1588.8,419.5c11.4-9.4,24.5-9.6,37.7-9,6.5.3,12.8,1.8,20.2,2.9-1.3-7.5-6.1-9.7-11.8-10.6-8.9-1.4-17.7-.8-26.5.6-8.3,1.4-16-3.3-19.2-11.8-1.9-5.1,1-11.3,8.2-15.3s14.7-6.9,23.3-6.8c12.8.2,25.6-.8,37.7,5.5,13.2,6.9,21.1,17.5,21.7,32.1.8,20.8.5,41.7.2,62.6-.2,12.7-14.1,19.9-25,12.7-6.2-4.1-10.8-3.6-17.3-.6-15.3,7.1-30.5,4.5-44-4.8-13.1-9.1-19.4-22.1-16.9-38.3,1.3-7.5,5.7-13.7,11.7-19.2M1644.9,444.6c.8-4.3-1.5-6.5-5.1-7.9-8.3-3.2-16.6-1.8-24.6.8-3,.9-5,3.2-5.1,6.8,0,3.9,2.1,6.2,5.5,7.2,7.8,2.3,15.6,2.4,23.3-.3,2.7-1,4.9-2.7,6-6.6Z"/>
    <path class="cls-1" d="M1055.8,422.8c11.3-11.7,25.3-13.1,39.9-12.4,5.1.2,10.2,1.4,15.2,2.3,1.6.3,3.4.8,4.2-1.2.8-1.9.4-3.9-1.2-5.1-1.7-1.2-3.6-2.6-5.6-2.8-9.8-1.2-19.7-2-29.3.3-7.8,1.8-16.1-1.8-19.3-9.5-2.8-6.8.2-14.7,6.9-18.7,4.5-2.7,9.7-4.5,14.5-4.9,14.6-1.3,29.2-2.5,43.5,3.4,14.8,6.1,21.7,17.4,23.5,32.2,2.7,21.7,1.6,43.5.9,65.3-.4,12-13.7,17.8-25,11-5.8-3.5-10.2-3.3-16.1-.6-21.9,10.2-49,1.1-58-19.9-5.6-13.8-4.5-27.3,5.9-39.4M1079.4,443c-.5,3.4.7,5.8,3.7,7.6,6.1,3.7,23.6,2.8,29.1-1.6,3.2-2.6,4.5-5.5,1.3-8.9-7.1-7.5-27.1-6.4-34.1,2.9Z"/>
    <path class="cls-1" d="M1318,407.7c.3,21.4.7,42.3.5,63.2-.1,8.5-7.4,14.5-16,14.4-9.2-.1-16.6-6.7-17-15.2-.9-17.5-1.8-35.1-2.7-52.6-.4-7-4.5-11-11.3-11.9-20.5-2.9-29.4,8.8-28.7,26.3.4,12.4.1,24.9,0,37.3-.1,9.6-7,16.5-16.3,16.6-9.2,0-16.4-6.9-16.9-16.1-1.3-26.2-1.1-52.5-1.2-78.8,0-7.2,1.3-14.6,8.4-17.2,7.6-2.7,16.3-3.7,23,3.2,2.4,2.5,4.1,2.2,6.6.4,22.2-15.8,57.4-6.7,67.8,18.6,1.5,3.7,1.1,8,3.8,11.8Z"/>
    <path class="cls-1" d="M1703.7,370.8c9-1.9,14.9,1.9,19.7,9.2,3.7-2.2,7.4-4.5,11.3-6.6,8.8-4.6,17.8-6,26.7-.4,6.6,4.2,8.8,10.5,8.4,18.1-.3,7.2-4.6,10.9-10.9,13-1.3.4-3,1.1-4,.6-7.6-3.5-13.8-.6-19.4,4.1-6.8,5.7-9.9,13.7-10.2,22.4-.4,11.7-.1,23.4-.2,35.2-.1,11.4-6.6,19.1-16.1,19.3-8.8.2-15.8-7.3-16.7-18.1-2.4-27.4-.6-54.8-1.3-82.2-.1-8.1,5.1-12.2,12.7-14.6Z"/>
    <path class="cls-1" d="M993.2,484.6c-9.2-3.7-12.8-10.6-12.8-19.6,0-25.1,0-50.2-.1-75.3,0-7,1.6-13.3,8.3-16.5,6.6-3.3,17-.5,22.2,5.2.5.5,1.1.8,2.1,1.6,7.4-6.8,15.8-11.3,26.4-10.3,7.5.7,14.6,5.5,16,11.5,2.1,8.8-1.8,19.2-8.5,22.8-1.5.8-3,1.1-4.7,1-18.3-.9-27.8,9.2-26.8,27.8.7,12.6,1.6,25.3-.5,37.9-2,11-10,16.2-21.6,13.9Z"/>
    <path class="cls-1" d="M1161.7,450c.1-17.3.2-33.9.4-50.6,0-3.7.2-7.5.8-11.2,1.5-10.9,7.8-16.2,18.4-15.7,8.4.4,14.5,7.2,14.8,17.3.3,11.9.1,23.9.1,35.8,0,13.6.1,27.2,0,40.8-.1,11.7-7.2,19.4-17.7,19.3-9.8-.1-17.3-7.9-17.6-19-.2-5.3.5-10.7.8-16.7Z"/>
    <path class="cls-1" d="M1184.2,361.7c-10.6,3-19.9-1-23.3-9.5-3.9-10,.3-20.9,10-25.5,8-3.8,19.1-.1,23.5,8.6,4.3,8.6,3.2,19.5-10.2,26.4Z"/>
  </g>
</svg>
