<svg version="1.1" id="Layer_1" xmlns="http://www.w3.org/2000/svg" xmlns:xlink="http://www.w3.org/1999/xlink" x="0px" y="0px"
	 width="100%" viewBox="0 0 784 816" enable-background="new 0 0 784 816" xml:space="preserve">
<path fill="#000000" opacity="1.000000" stroke="none" 
	d="
M356.908691,466.071716 
	C344.311859,472.945862 331.315613,473.803711 317.876953,471.031036 
	C316.901245,470.829712 315.716431,470.804199 315.017731,470.226562 
	C307.491577,464.004303 300.158936,467.640564 292.543640,470.180359 
	C282.816589,473.424408 272.637115,472.886353 262.958832,470.511047 
	C239.619400,464.782959 221.568817,451.106232 208.579071,431.039978 
	C201.012329,419.351105 195.831192,406.613678 195.718460,392.342438 
	C195.698959,389.874084 194.765518,388.549957 192.482086,387.393219 
	C171.607101,376.818024 158.702103,359.444214 150.756958,337.921661 
	C150.355148,336.833221 149.898926,335.764526 149.509232,334.671936 
	C146.143524,325.235474 146.146378,325.215546 136.042328,325.192871 
	C120.378380,325.157745 104.712921,325.274139 89.050827,325.092346 
	C77.422058,324.957397 69.501602,316.794006 69.639694,305.536713 
	C69.742485,297.157562 76.721359,290.024109 85.156990,289.843262 
	C103.308792,289.454163 121.461327,289.037018 139.615707,288.879517 
	C143.612183,288.844879 145.699036,287.978485 146.046280,283.545013 
	C147.319275,267.291260 152.992386,252.518173 162.039795,239.045197 
	C166.150360,232.923935 171.188156,227.605469 177.452484,223.592560 
	C179.389496,222.351715 180.378662,220.877274 180.813828,218.462601 
	C185.342819,193.331970 198.157791,173.701401 220.437439,160.866089 
	C239.563934,149.847336 260.071930,148.308136 281.229950,153.567780 
	C283.920074,154.236526 285.360077,153.806458 287.032288,151.547241 
	C296.975586,138.113281 309.641205,128.203949 325.458191,122.453194 
	C334.425049,119.193008 343.738190,119.839325 353.007019,119.540085 
	C361.143768,119.277382 368.712738,121.407066 376.248901,123.988831 
	C377.779724,124.513268 379.190826,125.644707 381.096771,124.969543 
	C382.540100,122.734680 381.917358,120.168015 381.924500,117.755257 
	C382.002380,91.426994 382.029053,65.098473 381.995331,38.770115 
	C381.989441,34.183765 382.503143,29.758921 384.958740,25.809305 
	C389.251099,18.905407 397.900360,15.808249 405.952759,18.157742 
	C413.874573,20.469135 419.143951,27.291553 419.155304,35.547771 
	C419.193878,63.542870 419.155151,91.538071 419.191895,119.533180 
	C419.194672,121.641983 418.671021,123.847633 419.872559,126.009705 
	C459.171112,110.649414 491.032501,120.882660 516.332275,154.016647 
	C559.678711,140.615723 600.157043,164.844635 615.975464,199.167542 
	C618.483093,204.608582 620.470154,210.307449 620.335632,216.440857 
	C620.235901,220.988037 622.973450,223.770172 626.034485,226.467758 
	C635.016968,234.383713 642.433960,243.521088 647.007629,254.669800 
	C650.844971,264.023621 654.104492,273.610352 654.097534,283.885193 
	C654.094849,287.836121 655.602844,289.064484 659.445435,289.020569 
	C677.273743,288.816833 695.105103,288.728882 712.934509,288.804291 
	C726.480957,288.861572 734.416809,298.851318 731.351257,311.633972 
	C729.643555,318.754669 722.012573,325.015167 714.052856,325.112213 
	C697.558777,325.313324 681.060547,325.184448 664.564026,325.181458 
	C653.584534,325.179474 653.459473,325.136810 650.619019,335.277252 
	C644.102112,358.543152 629.199402,375.025757 608.885986,387.126221 
	C606.695801,388.430908 605.284058,389.663818 605.184631,392.425323 
	C604.213928,419.394989 590.569275,439.606049 570.297180,455.812042 
	C552.140564,470.326843 530.834900,475.952545 508.458527,470.476837 
	C498.844391,468.124146 491.296082,468.020813 481.944092,470.806396 
	C458.457031,477.802155 440.013306,466.792847 423.569702,451.216278 
	C422.504242,450.207001 421.538361,449.092560 420.337158,447.828094 
	C418.742920,449.798401 419.276489,451.844757 419.273712,453.704559 
	C419.214478,493.531006 419.240875,533.357544 419.154205,573.183899 
	C419.128113,585.175964 410.415375,593.742188 399.110779,593.220093 
	C389.251831,592.764709 381.924072,583.942383 381.929352,572.314026 
	C381.943207,541.652832 381.981659,510.991516 382.107208,480.330658 
	C382.143341,471.505035 382.557861,462.681458 382.683960,453.855316 
	C382.711456,451.933624 383.248260,449.883636 381.712341,447.426239 
	C373.550751,453.721191 366.795227,461.756836 356.908691,466.071716 
M246.185837,314.062897 
	C227.530365,314.078094 208.874893,314.091949 190.219421,314.109314 
	C184.322433,314.114807 183.233856,315.195923 184.354492,320.771973 
	C185.773575,327.833191 188.169571,334.645874 192.458542,340.456848 
	C198.121658,348.129639 204.689117,354.375793 215.535660,350.185486 
	C216.581177,349.781555 217.838364,349.820282 218.996002,349.828735 
	C227.239609,349.889099 235.299454,357.020996 234.841644,364.054565 
	C234.561111,368.364563 234.087433,372.700226 233.223022,376.926727 
	C230.702682,389.249908 232.491180,400.917480 239.445450,411.267181 
	C248.499023,424.741150 260.044403,434.635651 277.637360,434.765228 
	C282.469208,434.800812 284.629761,432.989655 285.463470,428.529266 
	C287.327911,418.554199 296.490112,412.073700 306.074738,412.544403 
	C316.585052,413.060577 322.809418,419.382202 324.250244,430.740021 
	C324.550507,433.106781 325.463837,434.447968 327.874512,434.640808 
	C333.940002,435.126099 339.627594,434.520966 345.022034,431.058990 
	C362.128845,420.080475 366.658569,396.536285 357.996918,378.610992 
	C347.367249,356.612915 327.190613,345.821228 305.239197,337.996185 
	C300.001953,336.129211 299.155914,337.003784 299.102356,342.665649 
	C298.998444,353.651855 299.223206,364.632874 298.433228,375.617767 
	C297.580658,387.472931 284.160522,395.374542 273.395050,390.117035 
	C264.992310,386.013458 263.186188,378.479614 262.906738,370.160339 
	C262.437592,356.195435 263.802002,342.180542 261.848145,328.257629 
	C260.638550,319.638123 255.862259,315.115723 246.185837,314.062897 
M549.605713,425.123291 
	C553.603577,422.072632 557.256409,418.648285 559.891785,414.343994 
	C568.487183,400.305634 570.609619,385.310272 566.493896,369.349792 
	C564.018250,359.749573 570.542053,351.138824 580.479980,350.730408 
	C583.967041,350.587097 587.475647,350.717316 590.963867,350.911835 
	C595.764221,351.179504 599.599304,349.363770 603.181763,346.272247 
	C611.154785,339.391815 615.215088,330.574951 616.733093,320.368042 
	C617.509644,315.146912 616.740356,314.154816 611.442078,314.147919 
	C593.123047,314.124176 574.803833,314.103455 556.485046,314.176117 
	C545.757446,314.218689 539.444702,320.341370 539.240723,331.119202 
	C539.007568,343.437073 539.035217,355.760834 539.050537,368.081909 
	C539.055115,371.764313 538.715149,375.257935 537.487854,378.827728 
	C534.458984,387.637726 526.903992,393.169830 518.761414,391.982422 
	C509.102509,390.573883 502.787109,383.309845 502.731201,373.425751 
	C502.671875,362.934143 502.634796,352.441772 502.706207,341.950500 
	C502.730957,338.312744 501.563660,336.475281 497.656769,337.634491 
	C478.066132,343.447113 460.507935,352.626221 448.452637,369.724182 
	C438.230621,384.222076 435.077209,400.133484 443.414520,416.618073 
	C448.923706,427.510803 456.983093,435.589661 470.678253,434.711121 
	C474.091949,434.492126 476.213745,433.346130 476.741791,429.543457 
	C478.233276,418.803650 485.584656,412.212158 495.813599,412.094727 
	C505.810059,411.980011 514.583435,419.069611 515.876282,429.316162 
	C516.453369,433.889648 518.425720,434.612915 522.279724,434.788849 
	C532.484375,435.254730 541.027222,431.267029 549.605713,425.123291 
M547.725525,234.901352 
	C542.452820,242.362228 534.926392,245.503204 526.151550,245.034882 
	C510.833344,244.217361 495.546631,243.970016 480.243805,245.141800 
	C472.643524,245.723801 463.370361,252.425354 461.519379,259.515289 
	C459.364807,267.767944 460.470428,277.593384 468.786896,283.530212 
	C479.623779,291.266327 491.471527,296.587860 503.672150,301.520142 
	C507.411499,303.031830 509.212036,302.623688 511.221954,299.117401 
	C519.271790,285.074432 532.378845,278.365845 547.760315,277.481995 
	C567.022827,276.375092 586.385437,277.061707 605.702637,276.805603 
	C608.877075,276.763550 613.400696,278.569794 614.948303,275.438416 
	C616.582886,272.130951 613.233459,268.652283 611.388306,265.587799 
	C606.885803,258.109619 600.375366,252.790253 592.705994,248.735519 
	C586.469727,245.438446 582.939087,240.693253 583.638245,233.046570 
	C584.071289,228.310532 584.585205,223.346695 583.099731,218.655182 
	C577.901123,202.236588 566.252075,192.525772 549.937683,188.687531 
	C543.283142,187.121948 536.088806,186.189117 529.320740,189.381760 
	C524.554749,191.629990 523.121033,195.948227 524.213562,203.732422 
	C524.867126,208.388443 528.438293,206.508087 530.845520,206.883820 
	C547.297119,209.451645 554.217224,223.332642 547.725525,234.901352 
M254.469940,214.065048 
	C258.482391,209.202972 264.242004,207.890396 269.958130,206.958511 
	C276.196014,205.941559 276.425995,205.999924 275.473785,199.574112 
	C275.303040,198.422043 274.809448,197.237305 274.955292,196.132370 
	C275.701599,190.478867 272.104980,188.924072 267.643280,188.222870 
	C255.800568,186.361633 244.771683,188.480957 234.892715,195.419739 
	C222.422028,204.178879 215.312347,215.688324 217.583191,231.475876 
	C218.780411,239.799316 217.428757,243.401611 210.008667,247.289001 
	C202.983734,250.969376 196.589172,255.355362 191.909561,261.867645 
	C188.756195,266.255981 185.530228,270.660767 185.267731,276.940247 
	C187.252991,276.940247 188.887100,276.941406 190.521210,276.940063 
	C210.669373,276.923676 230.817719,276.848236 250.965668,276.907776 
	C268.902466,276.960754 281.786499,285.750031 291.045135,300.556030 
	C291.914246,301.945862 292.319550,303.639832 294.395905,304.392151 
	C306.547516,297.622620 319.828125,292.588531 331.560669,284.612213 
	C339.561371,279.173004 342.774719,266.844360 338.574097,258.107788 
	C334.059814,248.718857 326.318665,244.284439 316.207520,244.133835 
	C300.558594,243.900757 284.904053,244.054398 269.252045,244.009430 
	C263.645599,243.993332 258.470978,243.158173 254.416489,238.468536 
	C249.247147,232.489426 247.769043,222.503510 254.469940,214.065048 
M433.485657,299.075043 
	C424.850098,292.758453 418.364960,284.700897 413.638733,275.107788 
	C407.089722,261.814880 404.112366,247.631195 402.642548,233.029572 
	C402.426392,230.881973 402.076904,228.746948 401.757629,226.610809 
	C401.447693,224.537216 401.097229,222.469681 400.764587,220.399475 
	C399.882111,244.428421 395.210510,267.320831 380.675018,286.800079 
	C365.598053,307.005066 342.765259,312.700073 319.104706,315.880035 
	C319.790771,317.745605 320.734192,317.688660 321.507721,317.660248 
	C330.079681,317.345551 338.258301,319.534912 346.358795,321.828003 
	C363.380371,326.646484 376.904144,336.009674 385.490356,352.012054 
	C394.531830,368.863037 398.407562,387.033875 400.276459,405.797668 
	C400.512451,408.167084 400.773499,410.466888 402.174438,412.559082 
	C402.193665,402.289948 404.221863,392.373352 406.073395,382.488922 
	C409.692535,363.167999 417.770813,346.159271 433.694153,333.770599 
	C443.586426,326.074249 454.894562,321.707947 467.227417,319.439911 
	C471.143036,318.719788 475.219666,317.844910 479.145966,316.632111 
	C477.922119,315.816284 476.813507,315.507660 475.691101,315.261963 
	C461.039276,312.054718 446.594574,308.303650 433.485657,299.075043 
M457.734344,190.729874 
	C466.949432,187.937729 474.288055,190.688675 480.240784,198.080612 
	C482.447632,200.820999 483.736969,204.467224 487.144470,206.053879 
	C488.648315,205.114410 489.352600,203.821915 489.381409,202.553223 
	C489.603699,192.756790 489.850006,182.792145 484.601379,174.058868 
	C476.971375,161.363297 465.172882,155.861572 450.597076,156.352173 
	C433.870422,156.915161 419.548035,168.311752 419.508972,186.650528 
	C419.476715,201.799194 420.060333,216.937592 422.620911,231.869156 
	C423.384064,236.319305 423.842255,241.344681 427.505707,245.236710 
	C429.796814,241.263199 431.613525,237.321106 434.156830,233.922806 
	C436.728699,230.486359 439.689697,227.155197 443.082642,224.567932 
	C447.021667,221.564270 447.619781,218.190002 446.635101,213.753738 
	C444.306702,203.263947 447.724182,196.013000 457.734344,190.729874 
M317.204285,205.745499 
	C318.714172,201.575256 321.459839,198.232178 324.501953,195.136978 
	C331.157074,188.365631 339.758636,187.011047 347.155975,191.459595 
	C355.117859,196.247650 357.753937,203.897385 354.778931,213.382538 
	C353.482147,217.516815 353.655945,221.009155 358.019958,223.656143 
	C362.905151,226.619247 366.576782,230.981552 369.729492,235.765945 
	C370.479553,236.904190 370.765869,238.674271 372.785400,238.794449 
	C375.161133,236.715286 375.704224,233.600037 376.500641,230.861053 
	C381.191193,214.729767 381.989014,198.218887 380.660675,181.553268 
	C379.993378,173.181564 375.971924,166.705109 369.091522,162.124969 
	C353.402771,151.681259 332.310730,155.159225 319.403046,169.520721 
	C309.838776,180.162231 310.905060,192.798645 311.600098,205.377457 
	C311.779968,208.632843 314.589417,208.298767 317.204285,205.745499 
z"/>
<path fill="#000000" opacity="1.000000" stroke="none" 
	d="
M32.708153,664.268250 
	C33.338940,654.341370 39.002773,648.876160 48.412945,648.837219 
	C61.906330,648.781433 75.414543,649.217834 88.889801,648.721313 
	C102.983185,648.202026 117.595108,663.199219 115.837044,680.039001 
	C115.083527,687.256714 114.718010,694.269592 109.154854,699.751770 
	C107.572441,701.311157 108.535690,702.742371 109.837212,704.043091 
	C121.527390,715.725464 121.460075,729.288269 114.919960,743.035156 
	C110.487549,752.351624 102.051018,757.599548 91.676201,757.974304 
	C77.868217,758.473206 64.023705,758.281372 50.202782,757.999329 
	C39.324116,757.777344 32.743126,750.701294 32.718445,739.699036 
	C32.662395,714.710571 32.704857,689.721924 32.708153,664.268250 
M84.725853,715.377991 
	C77.590378,715.349426 70.454048,715.377502 63.319786,715.269226 
	C59.540077,715.211853 57.826145,716.861511 57.984013,720.674622 
	C58.134953,724.320557 58.082844,727.975220 58.106030,731.626099 
	C58.120552,733.913025 58.985104,735.682556 61.477005,735.671143 
	C70.415451,735.630310 79.395317,736.623535 88.270531,734.720215 
	C91.522156,734.022888 93.413559,732.221069 94.133629,728.827332 
	C95.526917,722.260986 93.285194,718.590332 84.725853,715.377991 
M80.175240,672.329102 
	C74.355286,672.289490 68.531021,672.371460 62.717003,672.164673 
	C59.211090,672.040039 57.941814,673.514099 58.080757,676.889648 
	C58.244778,680.874512 58.254574,684.873291 58.133003,688.859985 
	C58.029110,692.267090 59.572067,693.736389 62.886852,693.711914 
	C68.706573,693.669006 74.526909,693.715271 80.346764,693.683472 
	C88.151375,693.640808 91.638573,690.429138 91.769653,683.223450 
	C91.912834,675.352356 89.394669,672.787598 80.175240,672.329102 
z"/>
<path fill="#000000" opacity="1.000000" stroke="none" 
	d="
M535.438843,747.439148 
	C526.551147,756.490601 515.788330,759.527161 503.815582,759.230408 
	C499.494873,759.123291 495.960938,756.642944 492.097321,755.169739 
	C487.780426,753.523621 486.374268,754.517944 486.286682,759.192200 
	C486.141174,766.959229 488.279175,774.734253 485.739197,782.511353 
	C484.125061,787.453674 481.343781,790.670593 476.043121,791.189758 
	C470.730255,791.710144 466.161591,789.060974 464.028961,784.139343 
	C462.631927,780.915283 461.952087,777.513428 461.950317,773.933350 
	C461.936401,746.272156 461.875122,718.610779 461.757843,690.949829 
	C461.735352,685.641724 463.722595,681.478882 468.396362,679.011414 
	C473.321381,676.411133 478.255707,677.443115 482.355560,680.761292 
	C484.784637,682.727417 486.322754,682.547119 488.901703,681.182495 
	C510.856842,669.565308 538.289368,679.805786 545.802612,705.804626 
	C550.292358,721.341125 547.415039,735.433105 535.438843,747.439148 
M498.258057,734.421204 
	C506.231903,737.634583 513.569397,736.079163 519.679932,729.880127 
	C525.091248,724.390564 525.915161,719.349915 522.654358,711.681519 
	C519.161865,703.468201 511.391632,698.804626 502.042328,700.493225 
	C494.457458,701.863037 488.119263,704.751892 486.584381,716.730652 
	C485.640564,724.096802 488.110901,730.327454 498.258057,734.421204 
z"/>
<path fill="#000000" opacity="1.000000" stroke="none" 
	d="
M435.270752,754.469849 
	C414.778564,763.109070 396.078278,759.599548 378.920898,747.086914 
	C372.396851,742.329163 371.516968,737.218811 374.481934,732.576904 
	C378.484528,726.310547 384.135162,724.305603 391.209015,727.721497 
	C397.056183,730.545044 402.747925,733.608093 409.294861,734.587158 
	C413.463287,735.210571 417.613434,735.292480 421.706085,734.380127 
	C424.964325,733.653748 428.350342,732.821838 428.781403,728.536133 
	C429.205933,724.314880 426.350952,722.509521 423.120300,721.354492 
	C415.164734,718.510315 407.112854,715.936829 399.123260,713.186096 
	C389.965668,710.033142 381.408661,705.828491 376.977020,696.582275 
	C368.046631,677.949951 375.818787,660.026184 394.449677,651.173401 
	C411.979797,642.843628 428.845459,646.408936 444.223022,657.494995 
	C449.831512,661.538269 450.743774,666.652039 447.657562,671.805908 
	C444.266846,677.468262 437.584259,679.785706 431.714661,677.409119 
	C425.096558,674.729370 418.522797,671.927795 411.123871,672.191833 
	C408.354553,672.290710 405.861450,672.952637 403.601227,674.467651 
	C400.709137,676.406311 398.556641,679.026794 398.555786,682.594788 
	C398.554901,686.195496 401.593750,687.413513 404.369781,688.672424 
	C413.764984,692.933044 423.882599,695.056396 433.538544,698.565674 
	C444.477966,702.541504 452.555664,709.160095 454.039124,721.206970 
	C455.765961,735.230835 450.723480,746.301941 437.811981,753.127686 
	C437.077393,753.515991 436.347565,753.913330 435.270752,754.469849 
z"/>
<path fill="#000000" opacity="1.000000" stroke="none" 
	d="
M756.786743,738.272705 
	C757.900146,739.755310 758.880737,740.901062 759.669312,742.166443 
	C761.911255,745.764099 763.982056,749.324524 760.738708,753.560852 
	C757.500061,757.791016 752.107727,759.744873 747.126404,758.428711 
	C741.779785,757.015991 738.408203,753.089355 734.970642,749.255432 
	C731.529236,745.417175 728.337891,741.353149 724.859680,737.550171 
	C723.563965,736.133423 722.956848,732.831116 720.118225,734.295776 
	C717.302124,735.748718 713.733093,736.717896 712.986145,740.638733 
	C712.488037,743.253723 711.976257,745.866150 711.496155,748.484436 
	C710.166382,755.736694 705.911072,759.528320 699.515625,759.140381 
	C692.841919,758.735596 687.902832,753.641541 687.819153,746.567871 
	C687.675476,734.416016 687.788818,722.261169 687.784668,710.107605 
	C687.778992,693.293823 687.697632,676.479797 687.781677,659.666443 
	C687.824341,651.125610 693.598267,646.090210 702.047424,646.908813 
	C707.517273,647.438660 711.215027,651.260681 711.247925,656.762451 
	C711.328491,670.244995 711.261597,683.728455 711.318542,697.211182 
	C711.330078,699.939880 710.875366,702.835815 712.260437,704.577942 
	C716.492310,700.890381 720.620667,697.374573 724.656372,693.755371 
	C729.360657,689.536682 733.962097,685.203491 738.650696,680.967102 
	C741.344177,678.533447 744.796936,677.555908 748.194763,677.044250 
	C752.779724,676.353760 756.596375,678.018799 759.263367,682.112427 
	C762.114014,686.487976 761.117981,690.237732 757.913330,693.857544 
	C752.600891,699.858215 746.398987,704.920166 740.591492,710.398987 
	C735.710632,715.003540 735.825073,714.972351 740.240967,719.777222 
	C745.757507,725.779663 751.131042,731.913391 756.786743,738.272705 
z"/>
<path fill="#000000" opacity="1.000000" stroke="none" 
	d="
M557.224854,712.165649 
	C565.311829,705.509155 574.659058,705.349243 584.009949,705.765198 
	C588.594727,705.969055 593.140686,707.047852 598.363403,707.829285 
	C597.422363,702.512939 593.993958,700.947632 589.984192,700.327942 
	C583.689880,699.355225 577.378052,699.749573 571.118713,700.785461 
	C565.248108,701.757019 559.744080,698.426880 557.509033,692.410461 
	C556.150208,688.752869 558.245300,684.405762 563.302185,681.552551 
	C568.385437,678.684631 573.777893,676.666199 579.827454,676.738464 
	C588.944824,676.847351 598.034485,676.166138 606.618286,680.666931 
	C616.001343,685.586914 621.604492,693.100159 622.020142,703.469971 
	C622.613586,718.274963 622.381348,733.121826 622.184387,747.946533 
	C622.064758,756.946350 612.178894,762.102417 604.413147,756.962769 
	C599.978943,754.028015 596.767395,754.370239 592.149780,756.527039 
	C581.297485,761.595825 570.499329,759.757874 560.912964,753.086487 
	C551.625732,746.623169 547.104248,737.392395 548.929199,725.889465 
	C549.784729,720.497131 552.907104,716.087524 557.224854,712.165649 
M597.051819,729.964844 
	C597.636047,726.918823 595.977234,725.324097 593.399353,724.330505 
	C587.485901,722.051208 581.628174,723.050476 575.883606,724.887329 
	C573.777954,725.560608 572.299133,727.192200 572.275757,729.742737 
	C572.250366,732.510803 573.751038,734.119446 576.178650,734.828247 
	C581.702271,736.440857 587.272278,736.508850 592.760803,734.647034 
	C594.698792,733.989624 596.259033,732.749146 597.051819,729.964844 
z"/>
<path fill="#000000" opacity="1.000000" stroke="none" 
	d="
M178.464935,714.487061 
	C186.485336,706.191345 196.464005,705.201233 206.790878,705.684204 
	C210.417511,705.853699 214.013763,706.714539 217.617981,707.296326 
	C218.787201,707.485046 220.015625,707.857605 220.618484,706.420166 
	C221.190186,705.056946 220.900040,703.663208 219.748276,702.807678 
	C218.567032,701.930359 217.184509,700.958557 215.796280,700.786987 
	C208.860535,699.929626 201.829529,699.372986 194.977631,700.972412 
	C189.430801,702.267212 183.569092,699.711182 181.286194,694.186768 
	C179.275360,689.320740 181.420807,683.750488 186.203003,680.867065 
	C189.402710,678.937927 193.078201,677.660156 196.479630,677.359619 
	C206.833679,676.445007 217.225433,675.585632 227.386597,679.749390 
	C237.879379,684.049072 242.790955,692.128540 244.106659,702.628845 
	C246.036911,718.033691 245.236450,733.561523 244.756516,749.014221 
	C244.492386,757.518738 234.996674,761.670410 227.024414,756.855408 
	C222.868469,754.345337 219.750076,754.506470 215.584366,756.453064 
	C200.040543,763.716309 180.770905,757.231689 174.393082,742.295288 
	C170.286392,732.677612 171.075668,723.121399 178.464935,714.487061 
M195.221680,728.864807 
	C194.844330,731.275146 195.715698,733.010315 197.837234,734.287231 
	C202.189651,736.906799 214.627304,736.282532 218.480896,733.146179 
	C220.721619,731.322571 221.695328,729.271240 219.403534,726.808228 
	C214.395081,721.425476 200.169525,722.216064 195.221680,728.864807 
z"/>
<path fill="#000000" opacity="1.000000" stroke="none" 
	d="
M364.752136,703.802002 
	C364.991364,719.035767 365.237213,733.861206 365.083160,748.682556 
	C365.020447,754.716370 359.852783,758.974121 353.701691,758.916931 
	C347.171204,758.856201 341.925598,754.185608 341.611603,748.105225 
	C340.967560,735.635010 340.355042,723.163208 339.712250,710.692932 
	C339.457489,705.750305 336.504395,702.875305 331.684570,702.202759 
	C317.117859,700.170166 310.820892,708.431458 311.264771,720.903503 
	C311.578674,729.724182 311.371277,738.566162 311.284424,747.397461 
	C311.217102,754.246643 306.316620,759.151550 299.718079,759.180725 
	C293.166626,759.209778 288.045044,754.275940 287.720062,747.742432 
	C286.792542,729.095459 286.960083,710.433655 286.884949,691.774597 
	C286.864410,686.670959 287.802521,681.403870 292.870453,679.583313 
	C298.272736,677.642761 304.435883,676.965027 309.188019,681.865662 
	C310.889679,683.620422 312.104279,683.433044 313.865631,682.176880 
	C329.607758,670.950195 354.657501,677.406982 362.058990,695.390808 
	C363.147736,698.036133 362.820557,701.037659 364.752136,703.802002 
z"/>
<path fill="#000000" opacity="1.000000" stroke="none" 
	d="
M218.796600,568.342896 
	C209.603714,558.906799 208.489517,550.377197 216.179077,540.637390 
	C226.090500,528.083435 235.385468,515.108215 244.662506,502.100311 
	C247.075165,498.717407 250.113983,495.896881 253.892822,493.855286 
	C262.460541,489.226440 270.414520,492.834412 276.193085,498.194458 
	C281.097870,502.743927 281.783813,512.294922 278.258057,519.138000 
	C274.255249,526.906982 268.240265,533.220947 262.949829,540.047546 
	C258.463470,545.836548 254.004532,551.627014 249.867737,557.679871 
	C246.679214,562.345215 243.128006,566.675232 237.899277,569.441895 
	C231.343338,572.910828 225.190521,572.602722 218.796600,568.342896 
z"/>
<path fill="#000000" opacity="1.000000" stroke="none" 
	d="
M587.724487,59.590546 
	C590.635986,65.709297 589.195435,71.147163 585.913025,75.985291 
	C575.720520,91.008667 564.060059,104.904007 552.209534,118.626900 
	C549.709290,121.522156 546.553528,123.812386 542.790955,124.974884 
	C534.666504,127.485077 528.165527,125.849564 523.592712,119.589172 
	C518.879028,113.135933 517.030090,106.053719 522.494202,97.853905 
	C527.188171,90.809776 532.383728,84.068016 537.742310,77.506844 
	C544.366394,69.396225 550.234192,60.712631 557.283325,52.910088 
	C566.285095,42.946236 583.066223,46.088833 587.724487,59.590546 
z"/>
<path fill="#000000" opacity="1.000000" stroke="none" 
	d="
M570.113831,572.158936 
	C559.383911,571.061035 554.742859,562.794006 549.528992,555.662537 
	C542.263184,545.724670 534.833374,535.922852 527.356018,526.147522 
	C524.154419,521.962036 520.934570,517.667786 520.798645,511.929901 
	C520.563477,501.999939 524.655640,496.361786 535.189941,492.476898 
	C540.880127,490.378448 550.434631,493.980347 554.933289,500.106812 
	C564.771423,513.504761 574.055176,527.341736 584.445984,540.292908 
	C595.391052,553.934937 587.123413,571.026184 570.113831,572.158936 
z"/>
<path fill="#000000" opacity="1.000000" stroke="none" 
	d="
M162.601990,441.682190 
	C149.641464,450.469208 137.111038,459.250458 124.276253,467.561768 
	C115.390190,473.315979 106.861717,472.097534 99.843422,464.905029 
	C92.385223,457.261749 93.423180,445.092102 102.732765,438.262390 
	C116.143822,428.423767 129.847641,418.993347 143.157562,408.998016 
	C149.855820,403.967834 157.673599,402.413086 165.496124,407.422638 
	C172.212860,411.723999 174.884125,418.058380 174.098694,425.775482 
	C173.361710,433.016663 168.657944,437.682037 162.601990,441.682190 
z"/>
<path fill="#000000" opacity="1.000000" stroke="none" 
	d="
M278.847260,117.665314 
	C269.737030,127.757607 260.405365,128.218704 250.425400,119.466293 
	C242.686142,112.678978 238.147659,103.374619 231.536285,95.693245 
	C226.989029,90.410042 222.865479,84.779366 218.170670,79.591454 
	C208.999588,69.457069 210.235825,57.065311 220.822189,50.022141 
	C227.119034,45.832809 236.121231,46.691486 241.944565,52.126442 
	C248.303177,58.061001 252.940750,65.440056 258.386932,72.132767 
	C265.093292,80.374039 272.360046,88.159058 278.332092,97.023720 
	C282.927765,103.845329 283.729370,110.407425 278.847260,117.665314 
z"/>
<path fill="#000000" opacity="1.000000" stroke="none" 
	d="
M702.917114,167.698334 
	C699.871948,172.523254 695.422485,175.313751 691.263855,178.306671 
	C680.323181,186.180496 669.143127,193.720917 658.168823,201.548752 
	C645.000061,210.941864 629.183533,202.575943 628.026489,188.906189 
	C627.488831,182.554047 629.101074,176.803986 634.420837,172.948181 
	C648.160583,162.989487 661.906067,153.021439 675.976013,143.542023 
	C684.575623,137.748169 692.025696,138.832947 699.632874,145.705048 
	C706.255920,151.688110 707.301208,158.185867 702.917114,167.698334 
z"/>
<path fill="#000000" opacity="1.000000" stroke="none" 
	d="
M704.150208,448.137878 
	C705.968323,455.513428 703.990173,461.490936 698.603516,465.992554 
	C693.279846,470.441559 687.283569,473.117188 680.269958,469.419495 
	C677.781555,468.107605 675.024780,467.153961 672.826233,465.468414 
	C660.939880,456.355255 648.080383,448.655609 635.975464,439.871552 
	C626.808472,433.219482 624.145752,424.918030 628.470398,416.130554 
	C633.051575,406.822021 643.290344,400.312988 655.429688,408.485016 
	C668.656616,417.389130 681.365417,427.049133 694.728882,435.779999 
	C699.040833,438.597137 702.565063,442.502960 704.150208,448.137878 
z"/>
<path fill="#000000" opacity="1.000000" stroke="none" 
	d="
M157.252411,166.705078 
	C160.633408,169.172348 163.919800,171.205063 166.765274,173.733932 
	C173.810745,179.995438 174.980698,189.824371 169.824768,197.196274 
	C164.561325,204.721863 154.239456,207.828476 146.392609,203.094452 
	C137.300781,197.609360 128.891113,191.000580 120.117424,184.978516 
	C114.627419,181.210312 108.959900,177.700912 103.465408,173.938995 
	C95.195312,168.276688 92.452171,160.085007 95.629250,151.027985 
	C98.658073,142.393616 110.320328,137.352570 118.738777,141.062256 
	C123.034325,142.955154 126.936775,145.558289 130.592560,148.427673 
	C138.997528,155.024673 147.920807,160.836197 157.252411,166.705078 
z"/>
<path fill="#000000" opacity="1.000000" stroke="none" 
	d="
M638.861450,677.557800 
	C645.262817,676.211426 649.432495,678.938660 652.865845,684.105713 
	C655.507202,682.555908 658.123352,680.877563 660.866089,679.440674 
	C667.104858,676.171997 673.484497,675.180298 679.815247,679.138916 
	C684.532166,682.088501 686.052429,686.617371 685.814880,692.000916 
	C685.588928,697.122559 682.570190,699.768005 678.097534,701.234375 
	C677.178406,701.535706 675.978210,702.022217 675.246338,701.685974 
	C669.877319,699.219482 665.425781,701.280884 661.474915,704.603271 
	C656.624878,708.681702 654.424805,714.305603 654.223938,720.499939 
	C653.954041,728.819824 654.170166,737.154419 654.095215,745.481934 
	C654.022095,753.606689 649.410706,759.061340 642.636719,759.187134 
	C636.380554,759.303406 631.396118,753.966370 630.734558,746.298950 
	C629.056519,726.849243 630.287231,707.350281 629.841064,687.878052 
	C629.710266,682.168396 633.439636,679.250671 638.861450,677.557800 
z"/>
<path fill="#000000" opacity="1.000000" stroke="none" 
	d="
M133.965744,758.434448 
	C127.400993,755.780029 124.903130,750.915344 124.892120,744.511475 
	C124.861488,726.683289 124.889023,708.854980 124.806877,691.027100 
	C124.783867,686.035217 125.951050,681.593079 130.693756,679.268921 
	C135.414505,676.955566 142.763214,678.947266 146.440292,682.987183 
	C146.760818,683.339355 147.208221,683.576050 147.911179,684.101440 
	C153.168304,679.251404 159.110519,676.039124 166.674271,676.772949 
	C171.988144,677.288574 177.044235,680.655273 178.079086,684.975342 
	C179.568497,691.192993 176.772232,698.602722 172.003983,701.193726 
	C170.936935,701.773499 169.872803,701.981750 168.660400,701.922729 
	C155.637619,701.287964 148.884277,708.469543 149.587601,721.665771 
	C150.065414,730.631287 150.733795,739.652710 149.228607,748.586060 
	C147.921005,756.346680 142.195312,760.060059 133.965744,758.434448 
z"/>
<path fill="#000000" opacity="1.000000" stroke="none" 
	d="
M253.699982,733.801697 
	C253.782959,721.506836 253.831879,709.690247 253.959152,697.874573 
	C253.987732,695.221375 254.134583,692.549744 254.496201,689.923584 
	C255.560486,682.194519 260.067383,678.413452 267.588745,678.758667 
	C273.553558,679.032471 277.901459,683.885193 278.090363,691.073242 
	C278.313324,699.556030 278.178345,708.048401 278.188477,716.536621 
	C278.200012,726.190063 278.263092,735.843994 278.186859,745.496826 
	C278.120911,753.845459 273.071960,759.259766 265.597961,759.215210 
	C258.607941,759.173523 253.301834,753.611267 253.102066,745.733582 
	C253.005432,741.923279 253.478897,738.098511 253.699982,733.801697 
z"/>
<path fill="#000000" opacity="1.000000" stroke="none" 
	d="
M269.665680,671.064453 
	C262.163239,673.187988 255.491684,670.347717 253.102875,664.291748 
	C250.299667,657.185242 253.339188,649.446716 260.215851,646.182434 
	C265.885376,643.491150 273.794373,646.111694 276.880859,652.265198 
	C279.981720,658.447327 279.217255,666.203430 269.665680,671.064453 
z"/>
</svg>